/* XPM */
static char *imag4_64[] = {
/* columns rows colors chars-per-pixel */
"64 64 156 2 ",
"   c #A87F7E",
".  c #A78184",
"X  c #AB8386",
"o  c #AC8689",
"O  c #AE8B8C",
"+  c #B0878A",
"@  c #B28B8E",
"#  c #B3908F",
"$  c #AF8F91",
"%  c #B38E91",
"&  c #B98F94",
"*  c #B59395",
"=  c #B89596",
"-  c #B79897",
";  c #B99897",
":  c #B69699",
">  c #B99699",
",  c #B7999A",
"<  c #BB9B9C",
"1  c #BDA19F",
"2  c #B79EA1",
"3  c #BD9EA1",
"4  c #BEA1A3",
"5  c #BFA6A9",
"6  c #BFA9AA",
"7  c #C09E9E",
"8  c #C2A09E",
"9  c #C09EA1",
"0  c #C0A1A4",
"q  c #C1A1A5",
"w  c #C1A0A4",
"e  c #C0A2A5",
"r  c #C1A2A5",
"t  c #C2A3A5",
"y  c #C2A2A4",
"u  c #C0A2A6",
"i  c #C0A3A6",
"p  c #C1A2A7",
"a  c #C4A3A5",
"s  c #C0A4A5",
"d  c #C1A5A5",
"f  c #C2A5A4",
"g  c #C3A4A5",
"h  c #C0A4A6",
"j  c #C1A5A6",
"k  c #C0A4A7",
"l  c #C1A4A6",
"z  c #C2A4A6",
"x  c #C2A5A6",
"c  c #C2A5A7",
"v  c #C0A6A7",
"b  c #C4A7A5",
"n  c #C5A5A6",
"m  c #C4A6A6",
"M  c #C4A6A7",
"N  c #C5A6A7",
"B  c #C1A3A4",
"V  c #C8A5A7",
"C  c #C4A8A7",
"Z  c #C0A5A8",
"A  c #C2A4A8",
"S  c #C3A5A9",
"D  c #C2A6A8",
"F  c #C3A6A8",
"G  c #C2A5AA",
"H  c #C1A6AB",
"J  c #C1A7AB",
"K  c #C2A6AA",
"L  c #C3A7AA",
"P  c #C2A7AB",
"I  c #C6A5A8",
"U  c #C5A7A9",
"Y  c #C4A6A8",
"T  c #C7A6A8",
"R  c #C3A6A9",
"E  c #C8A7A9",
"W  c #C3A8AB",
"Q  c #C2A9AB",
"!  c #C3A9AB",
"~  c #C3AAAA",
"^  c #C4A8A9",
"/  c #C4A9A9",
"(  c #C5A8AA",
")  c #C4A8AB",
"_  c #C7A9AA",
"`  c #C7A9AB",
"'  c #C4ABAA",
"]  c #C4AAAB",
"[  c #C5AAAB",
"{  c #C7AAAB",
"}  c #C7ABAB",
"|  c #C6ABAB",
" . c #C3A9AC",
".. c #C5A9AD",
"X. c #C7A9AC",
"o. c #C7ABAC",
"O. c #C6AAAD",
"+. c #C4ACAF",
"@. c #C7ADAF",
"#. c #C4AAAC",
"$. c #C9A9AC",
"%. c #C8ACAD",
"&. c #C8ADAE",
"*. c #C9AEAE",
"=. c #C9ACAD",
"-. c #C9B0AF",
";. c #C5ADB1",
":. c #C6AEB1",
">. c #C8ADB0",
",. c #C8AFB0",
"<. c #C9AFB1",
"1. c #CAAFB0",
"2. c #CBAFB0",
"3. c #CAAEB1",
"4. c #CCAFB0",
"5. c #C8AFB4",
"6. c #C9AEB1",
"7. c #C7B1B2",
"8. c #C8B1B0",
"9. c #CAB2B1",
"0. c #C8B0B3",
"q. c #CBB1B3",
"w. c #C9B2B3",
"e. c #CBB3B2",
"r. c #CBB3B3",
"t. c #CDB1B1",
"y. c #CDB3B3",
"u. c #C9B0B5",
"i. c #CAB3B4",
"p. c #C9B2B6",
"a. c #CAB2B7",
"s. c #CBB2B7",
"d. c #CCB2B4",
"f. c #CDB2B4",
"g. c #CFB5B5",
"h. c #CCB6B4",
"j. c #CEB4B6",
"k. c #CFB4B6",
"l. c #CBB2B4",
"z. c #CFB9B7",
"x. c #CDB6B9",
"c. c #CEB7BB",
"v. c #CDB6B9",
"b. c #CDB8BB",
"n. c #CEB9BB",
"m. c #D0B5B6",
"M. c #D0B4B5",
"N. c #D1B6B9",
"B. c #D2BBBE",
"V. c #D6BDBE",
"C. c #D2BABC",
"Z. c #D3C0BE",
"A. c #D3BFC2",
"S. c #D2BEC1",
"D. c #D6C1C4",
"F. c #DAC4C4",
/* pixels */
">.< > > D p : >.> > < * v C.4 f < 3 1 = h.4 D a.= < > < 0 * > 1 S.> < S : = > &., &.8 < > E D , v p > h.3 9 3 0 > , W W > v 4.< ",
"] > * * ..3 * p % 0 f @ v x.3 p > b f > t., 5.x.* < , < < > S 4 s.> < p , = < ] , < < 0 > v D D , , 3 d.4 0 p S 3 , &.w.> v ] < ",
">.9 * * &.M * ] = > ; @ v s.< 3 : 4 : , m.< ;.w.: D > < M , S , @.9 , ] > > > >., 4 < 9 > v D 3 3 < > h.4 , < p < : ] w.* v S > ",
"s.< % * W ] * ] > , < @ M V.0 9 :  .D : ..< n.h.: ..> ] &.* p : w.M < @.* > < v , t.0 < 4 ] W * 0 M > h.p E < 0 < > v e.> < 1 > ",
"5 : * * d.v * 4 * v p * 3 d., p , D p , M < s..., p * D v > v < v 0 0 w.* > ] w.> w.< S w.7 ' > 0 ] : 0 < v 7 M < > 0 v > >.w.> ",
"C.> * * >.4 * ..* 4 v @ 0 &.* M * 4 p % 0 3 s.D , p > D ] * E , 0 0 < E > = v n.> w.0 < 4 7 v = < v > &.3 4 < 0 < < S p > x.x.> ",
"i.> % % w.W * D < > f * 3 d.> 0 > S 9 * p 0 C.d., D , v ] = =.> < 0 9 0 > = 4 6 < z.< < W 0 v 9 3 v 7 C.4 v < < < > &.v = ] ;.> ",
"s.< * * i.4 * D = < E * p s., * * 9 > * S 9  .5 < 4 * v v = t.> < > 0 < > > @.B.> @.0 > ] 0 3 > < 4 < w.3 3 < y < > v < = h.x.< ",
"x.> % * ;.4 * 4 * > < % 9 n.: 9 > a < = M < S.;.> p * M ] * ] < < M 9 v < > W 7.> >.] < 4 0 > < 0 ] < h.3 M > 4 > < ] < = @. .< ",
"6 , @ @ d.1 * ..* 4 1 * v n.< < * , , * v < ;.) 3 v % 3 4 : ..* < 3 < p < > ;.+.> v 4 > ..4 3 3 , 0 v h.4 f > M > 3 &.> > w.@.> ",
"b.3 % * ;.1 > >.: 4 a * ..h.< M , ] p - ] 4 n.D 4 M * p ] : < * 4 v > , 3 * ] @.= >...< 4 p , > 0 ] f z.4 0 < M < v ] < > N.t.> ",
"d., * % s.< * @.: < * * D &.% 4 , , > * 4 0 F.D < E * D p * ] > M v > 0 , > &.s.: 7.@.> &.0 < v M @.> w.< M < 4 < ] @.= <  .4 > ",
"C.< * * 5.< = @.: 3 * = &.4 > < : v 9 * v 4 W 3 , M * D @.* v > S < < < , > ;.i., ;.v * p p 0 , f &.8 ] 7 M 7 D 4 T ] < < b.@.> ",
";.* @ @ ;., * ;.* 3 , * 3 > > p , < > < t.4 C.p , S * 3 ..* v > @.< < v , > W  .> w.4 > v 0 > 4 ] t.> S 9 &.7 5 4 E v > < x.W > ",
"..* * % >., =  .* 3 * * v < = * : > > , ] < +.3 > S * 4 D , v , v > 3 p , > ] ..> ..v > >.4 < < < &.> v > ] < D b b 4 > 3 i.@.> ",
"v > % %  ., = @.* 0 , * > * = M * a 0 , S 3  .p > M % d.B.< < > w.< > , 3 * 4 D < m.@.> ] 0 4 < v h.4 < 9 &.3 v 0 *.] 9 3 3 0 < ",
"W : % @ .., > 6 * 3 < > 0 > * 3 : , > * > 0 &.3 , 0 % 4 4 > v < &.< < , , < &.C., @.v > N.4 1 M 0 W , 9 < &.> 4 < ] @.7 < m.S < ",
"..% * = ..D > i.: > > > < * * 9 : ] p * * > p , > v % w.C.> < , *.< > < 9 > < @.> W @.: S < v < 3 h.p < < =.< 4 , E ] < < w.v > ",
"S > * @ W 3 % @.* < > * > * = p * * * > 4 3 N.> , =.* ] v * v > 4 = < < 0 , =.h.1 C.d., @.< 4 p v h.4 3 0 S > S < &.&.< < @.3 > ",
"M > % * v 5 * v * < , > S > > 0 * 0 4 < D , v , , v * p S > * * M < > , 4 3 3 t.< h. ., d.3 ] 4 < @.4 > < v , 0 < 0 ] < 9 C.] > ",
"p % @ O W  .= D : < v > 4 % * 0 * < > < v p S.< , ] * s.5., 4 3 ] > > < p 3 3 &.< B.@.> 4 3 S 0 v m.< < 0 0 < 0 > ] t.< 9 7.4 > ",
"] > @ % 5 W % ] , 3 4 > 4 > > > * > , , < < u.3 : < * 4 3 < t.3 D > 3 D 3 3 4 C.3 D D 3 d.< 4 4 4 W < M 0 8 < 4 , v @.; 0 n.' > ",
"4 * * * 4 @.@ &.3 : < * 4 = = < * S 4 > , p D.S 3 ] * 0 C., , : &.* < 3 < 7 > D < >.>.< v 1 ..4 4 h.< 9 0 V 9 4 < S t.0 0 B.] ; ",
"4 * @ % W W % 4 < < < * 4 > * > * , * 0 0 < n.v > 4 * , D < =.< v * > v , * =.>., ..@.> t.4 ..3 4 @.> 0 4 0 < v M M @.< 0 D.&.< ",
"D > * * 5 >.* M < * , * 3 = @ 9 * > 7 < 4 > x.D 3 D % S >.3 D , t.> < < D h.> 0 , w.n., v 4 &.4 < w.< < < a < 0 f v i.< 1 D.>.= ",
"4 > % $ 4 =.@ 0 > * 9 * * * % p > * * 0 4 - D.@., >.* p ..: p < ..* 9 9 > 4 < ] < @.B., ..4 D 4 0 h., 9 0 < > v p S h.0 < x.W * ",
") 3 * * @.>.@ p , = a * S > % 4 , , : S  .* ;.4 < S # < p , S > ] > M a : v < t.0 3 +.: w.D ..3 > ] < > < < < 0 0 p @.< < b.w.> ",
"0 * @ O 4 D @ v 4 % 0 * p , * p > > > < W * c.>.< a * 0 S : 4 < D > 0 0 < t.* v 3 ..C., D 4 &.3 , M.< > 8 8 < 0 < v >.< < x.@.* ",
"0 O @ % 4 , @ 4 4 * S > , : @ * * > % < ;.* w.@., < * < > , d.< 4 > v ] * < > w.S W N., w.] =., , v > < 0 < < a 4 v W > < S.7.> ",
"f * * % D >.@ 4 4 % D : ..< % 3 > < > ,  .* w.+.3 S * < , , ' < h.< 1 ] < >.< ] 4 d.D., W ] ] 1 p N.D > < a < 3 < p W > 3 B.w.> ",
"< * % O 5 4 o 4 3 = >.: , > @ 3 : * * , w.* h.7.* , * ; * > t.4 W * 0 .., 4 > ] ..) S., ..] 3 > 4 h.4 p 0 > < M p 0 w.< 3 b...< ",
"v * % * W 4 + < 3 * @.* 0 < @ 3 > < > * &.* ...., M # , p > 4.3 >.> 0 ..: ] < < W 3 s.< &...p < > &.3 , , < < 0 D 1 @.< 3 S.w.< ",
"4 > @ O 4 W + < v * 4 * , : @ M > < > * W , W C., v * > < : 4 3 4 : 7 &.> @.0 3 W p w.< W 4 4 3 < w.@.< 4 0 0 b 4 0 h.< < B.@.< ",
"v * % * D t.O 3 4 % s.< < < % * @ < > @ w.3 v ;.: 3 * , 4 : D , p * < 0 : < , D ..4 h., w...4 < : W 4 < < > < M p , 6 > > x.&.; ",
"4 * * O 4 W + 3 +.* D , * * % > * < 7 @ 4 : M h.< S * , =.> 4 < ..> 3 , > M 3 3 < @.F.4 D D ..p < h.>.< < 0 9 v v a i.< <  .=.< ",
"9 @ O @ W d.+ > 3 * d.< * > @ > * * > O ..3 9 w.: < * * 3 , E : 4 : >.< * < > p p 4 d.D x.W 4 < , W 4 4 0 < < E @.3 n.< < s.v > ",
"v * % * 4 S O < 4 % ] > 3 < @ 0 > ; > % W 4 < 6 , 9 * < .., 3 4 w.> M 0 : v < 3 4 v C.3 W W 4 < < v @.> < p < ] w., s.3 p w.] < ",
"0 : @ o 4 S O * , * =.* 3 p @ , : * > O  .W = i.< 3 * < ] > v 4 -.* < 1 * ] < S 3 4 B.3 ] D , < < v e.< M a < W @.< B.3 3 w.v < ",
"S , @ = D S O < D % v * 3 3 * > * 4 v % W @.* 4 , p * 4 ] * 4 <  .* 7 < * ] 3 4 4 p w.3 >...< > < &.' > < 0 < E w., x.3 < @.' < ",
"* : O % ..] O , W % p * S 3 O p : : < % 4 4 * x.3 D > W @.* < 3 w.> < 3 > E , , 3 4 Z.p D D > , < ..h.< 4 b 7 ..5 9 D.3 4 @.v , ",
": , * @ >.w.O > D O =.< , 0 @ 3 * 4 4 % ] W > h.3 p > 4 D , M < ..> < 3 > a > < 4 4 h.3 >.] 0 > < 4 W , 4 0 < &.7.< w.3 4 w...< ",
"> : % * 3 4 o > D @ p : 3 < @ p , , 7 * 4 4 > x.3 S , ] =.3 , p &.* > 3 * E > < 0 v V.4 D p y > < v i., < M 9 >.w.< x.< 0 W 4 > ",
"9 , * * S w.% * v % ;., p v O < , * > > W 4 : s.3 , : < 3 3 =.< ] : ] S > 0 < 3 S , @.4 N.v > 4 ' 4 @.4 4 y < ] ] 7 s.< p C.4 < ",
"* @ * * , D % > 4 & 4 : > v % 3 , 0 9 * D 4 * &.3 3 * ..i., 4 4 w.: 4 , * f > 3 3 ..B.D d.p < 4 w.0 ) > < 4 > ] >.< 7.3 3 w.p < ",
"> * O O 3 < O > v = @.< : p o M < * : % p D % -.v , : v W , 4 4 w.: v < > -.9 3 4 p W 4 &.0 < 4 ' E >.< 0 M < D ..< i.< 0 i.4 < ",
"* @ = O p w.@ = v * 4 , : W @ , : > D % 4 >.% 4 < p > 4 7., p , @., p > * < > > 4 < d.4 B.0 < 4 &.9 ] > < 0 > D >.> u.9 p B.5 > ",
"3 @ = @ < ] @ * v * 4 * 4 ..@ 3 > * 3 % 4 D @ t. .4 : D h.3 < 4 w.> < > = a > < 4 v C.4 @.4 < 4 v =.-.= > 4 > ..d.> C.< p i.p > ",
"* @ @ O p >.% * < * =.p , 4 @ > * * 3 = >.W & ] 3 3 : < 4 : v < v > 9 * > E < p 0 < p p B.4 < p v 4 4 , 3 < : ..@.,  .< v B.p > ",
"*   @ o 3 ..% = 9 * < * 4 v o ] < > D & @.4 @ W 3 5 < v p., , 4 t.> > > > M : , < 8 N.D i.4 , p v 0 v * > < > =.w., s.4 v x.v > ",
"< % * > v @.% * 3 : @.< 4 v @ < > * , > w.9 @ ..4 4 > 4 +.* M 0 ..* 1 < * 4 : 0 y < ..3 i.4 < 4 v 3 3 0 0 p > D ..< ;.4 D B.3 > ",
"> O 7 * < ;.% % < * 4 9 4 &.+ 7 > < @.> &.> % D 4 ..> D s.* 0 4 t.> p < > M < : > 0 >.4 n.4 > 4 4 p 4 > < 3 < ..s.< ;.3 p D.4 < ",
"3 o : @ :  .% * = * v > v v + < , * , % @.4 + =.4 3 * D ..* < p N.> , > * 9 * M < , &.4 @.< < 4 4 ] < < < 0 < v .., s.< < w.4 < ",
"3 o : o > s.$ * < * 4 < 3 v + > * , ] % s.;.@ S 3 3 * 3 ] * p 3  .> S : : < > p > 0 .., w.0 < =.4 < < ] 9 9 , v >.3 5 < > @.S 9 ",
"* X , @ ,  .% *  .= 3 * ] =.X < : : 4 @ D W X v S , * d.N.% > 4 C., 4 < > 0 > < > 3 4.< 4 < 0 < < 0 > v 3 < > 3 D < x.p > @.4 < ",
"> o < O 4  .* * 3 * < * v v @ * * 3 v % ..v O 3 0 , % D 4 * 9 4 >.> ] 4 * , * M < < ..v C.< 0 9 v > > ] p < > 4 ;.4 @.< 0 h.3 9 ",
"* X p O 4 W * * p = * O D S + = * < 4 @ v 3 % < a v * W h., < : D > S 4 > < < , * 0 @.3 @.< 0 0 4 M < 4 , 3 < v 7.3 w.< 0 C.3 < ",
"* X < @ : 5.* O D = v > < 4 o 0 = : * % .., @ > < > * v 7.* 3 > 4 > v 4 * > < < < > @.4 h., 3 < 4 7 < @.0 < < v h.9 @.< 0 N.> 0 ",
"3 X =.* : ;.> @ ..* < > S p X 9 * 4 < @ h., @ > > ] * ] W * < * v > f 3 * > < < = 3 ..v @.3 v p 3 > < S 0 < < 0 ..0 w.4 4 >.< 7 ",
"> X : O * 4 * * x., , * < = o 0 > : - @ @.< @ < < 3 * >.h.= 3 , v = < 3 % , < S > > >.v &.< p , 4 > < p < 9 < 0 w.8 @.4 v >.> < ",
"< . =.* * ..* * +.* 3 : * * + < * $ < O d.4 @ , : 4 : 4 @.= p , 0 < 3 : % 4 0 >.: 3 ..D C.3 < p 4 > , < < < < 0 ,.0 ..4 v >.3 < ",
"* X : O , D : * s.* * % 4 > @ < = * @.p 4 < @ 3 , @.> h.h.% , > &., 3 > * p p v * < d.p  .4 V 3 4 S < > < 4 < 7 7.p 4.4 4 C.3 < ",
"4 X ..* : W , * @.* < * * > + = * O : * W v @ > : , * 4 4 * v < 4 , S < * 3 4 ..: - 4 D B.0 9 3 ] , < d.v 3 < 0 i.4 t.4 4 C.3 < ",
"] X 3 O , 6 , : ;.* , * 9 < X = * @ * % W @.@ 4 , w.* @.s.* < > d.p 3 , * S 4 v * * @.v >.0 4 4 v 0 , v < 3 4 M n.3 v W 3 B.v , ",
"4 X , * : +.> : w.* D * * > o * * @ < = 3 W @ v = , * ;.;.* v < W 3 > , * 3 3 W > = &.] >.4 3 < 4 > < &.4 0 0 < 7.< >.w., s.D , "
};
