/* XPM */
static char *imag3_64[] = {
/* columns rows colors chars-per-pixel */
"64 64 46 1 ",
"  c #C0C0C0",
". c #C1C1C1",
"X c #C2C2C2",
"o c #C3C3C3",
"O c #C4C4C4",
"+ c #C5C5C5",
"@ c #C6C6C6",
"# c #C7C7C7",
"$ c #C8C8C8",
"% c #C9C9C9",
"& c #CACACA",
"* c #CBCBCB",
"= c #CCCCCC",
"- c #CDCDCD",
"; c #CECECE",
": c #CFCFCF",
"> c #D0D0D0",
", c #D1D1D1",
"< c #D2D2D2",
"1 c #D3D3D3",
"2 c #D4D4D4",
"3 c #D5D5D5",
"4 c #D6D6D6",
"5 c #D7D7D7",
"6 c #D8D8D8",
"7 c #D9D9D9",
"8 c #DADADA",
"9 c #DBDBDB",
"0 c #DCDCDC",
"q c #DDDDDD",
"w c #DEDEDE",
"e c #DFDFDF",
"r c #E0E0E0",
"t c #E1E1E1",
"y c #E2E2E2",
"u c #E3E3E3",
"i c #E4E4E4",
"p c #E5E5E5",
"a c #E6E6E6",
"s c #E7E7E7",
"d c #E8E8E8",
"f c #E9E9E9",
"g c #EAEAEA",
"h c #EBEBEB",
"j c #ECECEC",
"k c #EDEDED",
/* pixels */
"388w833:183311wwwww8333883wwpppr8rww88338338883www8wrpppppwr3383",
"w88rw33388838wwwwwrww83383wrprpprprw8888w888p83wr83wwprrpwr333w8",
"8wrww83888w38wwwwrrpr83118wrpprrrppw8w88wrrwr88rr8wrwrrwwr813ww3",
"838w883333833www8rppw3381wwrppprrpr3ww1888ww888wwrwwrprwrrw11888",
"33wr831:38833www8wrr88w11wwrrrdpddr18w3888w8888rwwwrpprrpr811338",
"33ww8w1:3331:8w88www88w38wwrrrrpddp13w1wwwwwww8rrpwrprrrrr81*:31",
"3383331:311::8888888w8383wprrwwppr3::3:8w8ww88383w88wrrrw333#:83",
"www831313::*1888838::3388wwwppdprw8:#3118388833383888rrr8313*#1*",
"w8w8831:81::18w888::*38wrwrwppdpwr38*81::888w8388388rr8rwwr1:*1:",
"www8331:3113388:3w:3333wwwrrpprwrrw3*1:33ww88wr8331w881w8wp33138",
"wwww338883338ww188**338rwrrpprrprrr8813:8wwr8w8338w883:38wr8*3wr",
"rwww83ww83338ww888*#338rrprrrrrr388w1*::X3www81*#*w888388wr8#8rw",
"888831www8838wrw33#*133wrrrrrr88888w38883388w83:*1w8w1*38rww:8ww",
"133333w838w38ww33::*8wwrrrw8ww88888www8wrrwwrr181:38r3188rp8:wrw",
"8w8838w888w88ww13888rww88r838www881888wrrrppprw83318wwrwwwrpw8r8",
"w8ww88r8ww888w88wrwrr88838338w8388388338rpr8r338rrrr31r8:wpdpwr8",
"8w8wrrrww8838wwwwwrpr8w8wr8wrw88388w88388w888#:X:38rw1r83wrwrrw8",
"8wwwww8ww8w88w83wwppr8wrww38rw3wprwwwwww388ww#1#38wpp8883w388pr8",
"33wrw33w33rr3*3:3wrwr88w8www8818wwwwwrwwww8ww3:#rpwrpr33w8:18pw3",
"818ww31w8wrp8*1:8wwww1113rwww888rwwwwprrprrrrr3#:rrr8wwwpr8w3rw3",
"33www81w8rwww8818wrw81:1wrwwwwr8wrw8wrrwpprprw3#:rrpwrppwrww3rr8",
"88wrw8rrw8wwr3318rw8w313wwwrw3w88wpprrwwppwrr88:wrwrrwwr8338wrrw",
"wrrrwwr83ww8w8::wr8888138888w3rrrppdprwwpr8rw88188113838833wwrp8",
"wwwrrrrw8888883:w8888w8w838wwrrrprr88wwwprww13*1*31:3833113wwwrr",
"ww8wrrww838ww388833883138388wprr88883ww8wrrw8w811833381811388wpp",
"8w883ww83rrpw18w3113831:8w88rppw8388888w8wrw8rr1888w31338833wrpr",
"w88w8ww33rrww83w1*188:1388rrrppw8388838r8rppwwrw8rpw8ww888388rrr",
"3:388ww88rwwwrrr8:1ww11888rrwppw888188wrrpppr318wpprw3338818wwww",
"##:wwrw3wwwwwprwwr8w8838w833wrw8ww338wrrpkdp81rrppprp833331888ww",
"1*8wwww3rrw8wrwrw88888w3w811wprrrr3wrppprdkd838www8wr3183838w8wr",
"8www888wpprw8www88318rwww8w88ww8rr8wrkdrwprwwwrrwwww83113888w8wr",
"8wrwwrrrprrwwrrw83w88ww888338ww8w88wpdprpr33w8rpw88ww8888838wwww",
"3ww8wprpdrwwrrrw883rprrw838831388wrrdkppprwrrrwp3138888888388rwr",
"3ww8wrrrrww3w88113wrrpr83383*1338wrrdkdkdrrwrrwr8:1838w1www38ww8",
"w8wrrrwrrwrww8833338w88w8333388ww8wrddppdrw8wwwr311:8w88wwwwwww3",
"8rrrrrwrrrwwww8318w3383w3333388w88w8rrrpdpprwwr81::388338wwwrrw8",
"38www8wrrrrrw883:8w88::13111:138w338wwrprppp88w3w313388388wwrwrr",
"w8w88wwwwrwrw3:1w8331**33311:38www8wwwpprppr833383318rw31138w8rr",
"8883wwww8w88w113rd8*3838:133138883138rprpdpr88w883138rw31:1188ww",
":33333ww8888883wwrrw8ww8111333833388wwrrrrprrrrw81138w31:::*18w8",
"38www8www88888www1wpww838:33133311ww88wwrrrrprrr3311ww33*X::388r",
"wwrrrwwrww8ww8rrrw8wrr88313883:3313w3wr3wwpprrrw83338w331#*13888",
"w8w8wrrrrr83w88wrr83rrww8883w818818r3388wrr38888811338338*133388",
"8w81wwrppr88w3*138wwpr8ww8w83138313w88ww8ww83838313383:31::*:138",
"3w3881wrrr33w33w31w8rw8ww8881*:**:38388118888wr838w883131*1*:133",
"8w8ww388838w8ww31113wrw333881*:*:133wr1:3w838w8888ww8w31:*311383",
"ww18ww888388ww883388w8w333r8:31*:1111813rr818w881888wr31::1:8www",
"w888rw8w11188883888ww38wr333****###::188rrw3w83833w8wr888333wrww",
"811ww8wr88wrw8w3188ww8ww883::####**8138wprw3ww888388rw38883313rr",
"381111ww333w88883w8rrrrww33:8*:*:13w888wrww8888833333318833113wr",
"w13w318w188ww88wwprwwwrwww8:3:18w81ww88wwrr8ww8w3133331w88:13888",
"83::3888:88rr8ww88rrr888w881*#:wpw8wr83ww8w1ww3831333338881:183:",
"w1*3w8w8:3388wwrww88rw88wp81:#3r838wrw83w3838r81113313w33w1*3331",
"w13w8w8w88wwwwwwwwwwww838www1X*:3888wrw31333w831:::133383831333w",
"w38ww8888118818w3ww88338w88w:18:13:1wrww8ww33w8311138w8w31**1113",
"888w8388wwrrrrrw8ww8888wwwwwwwpw::11wrw88ww88wr8113313831:::11:8",
"8w313388wrrrwrpw888338wwwrrwrrwp3888rwr83w818ww33111333838388138",
"8:##*8wwrrrrwwp83w838wwwrrrrrwrprw88w88w8ww888w833813w3388131383",
"8::*3wrwrprr1w8813r88wrprrrwrrrprr8ww88w8wrrw8w118w338138w818313",
"1*w83wpppdrrrwprwrw838rwrwwrrppdpr8wr883wwwww8813www83 #33188888",
"3:3w8wpkdpwwprrrwrw888w388wrprddppw8338wwrw38831888381#13:*8888w",
"w311wrwppr88ddrw13w813838wwrrpddprww833rrpw3831:338333:38::33133",
"p3X18rwrr8:wddrw3311:38118wrppdkpprww8:8rw33ww3131::11:*3::88313",
"p3:83wwrr31rdwwpw:**X:33188wrrpdppr831ww88318w83331:**#:*388w8ww"
};
