/* XPM */
static char *imag1_64[] = {
/* columns rows colors chars-per-pixel */
"64 64 180 2 ",
"   c #B18C6F",
".  c #B18D74",
"X  c #BFA07B",
"o  c #C09F79",
"O  c #C1A279",
"+  c #BEA182",
"@  c #BEA58B",
"#  c #BFA88F",
"$  c #C3A484",
"%  c #C2A78A",
"&  c #C4AA8B",
"*  c #C9AD8B",
"=  c #D1B485",
"-  c #C4AC93",
";  c #C8AF94",
":  c #CBB296",
">  c #C6B29C",
",  c #CBB59B",
"<  c #CDB99D",
"1  c #D4BB9B",
"2  c #C7B6A1",
"3  c #C9B7A3",
"4  c #CCBAA4",
"5  c #CDBDAB",
"6  c #D1BCA5",
"7  c #D1BFAB",
"8  c #C1B7B0",
"9  c #C6BEB5",
"0  c #CABEB2",
"q  c #C9BFB9",
"w  c #CEC1AD",
"e  c #D4C1A5",
"r  c #D3C2AD",
"t  c #DACAAF",
"y  c #C7C0B5",
"u  c #CDC2B4",
"i  c #CDC5BC",
"p  c #CEC8BE",
"a  c #D3C5B4",
"s  c #D9C7B4",
"d  c #D6C8B6",
"f  c #DACAB4",
"g  c #D1C6B9",
"h  c #D4CABD",
"j  c #D9CDBC",
"k  c #DDD1BC",
"l  c #E0CEBB",
"z  c #E2D7BE",
"x  c #E5D9BF",
"c  c #CDC7C1",
"v  c #CFC9C2",
"b  c #D3CDC4",
"n  c #D9CEC1",
"m  c #D4CEC9",
"M  c #D8CFC8",
"N  c #D6D0C6",
"B  c #DAD2C5",
"V  c #D6D0CB",
"C  c #D6D1CB",
"Z  c #D6D1CB",
"A  c #D7D2CA",
"S  c #D7D2C9",
"D  c #D5D1CC",
"F  c #D7D0CC",
"G  c #D7D1CC",
"H  c #D7D2CC",
"J  c #D7D2CD",
"K  c #D7D1CE",
"L  c #D7D3CE",
"P  c #D6D1CB",
"I  c #D9D2C8",
"U  c #D8D1CA",
"Y  c #D8D2CA",
"T  c #D8D3CB",
"R  c #D9D3CB",
"E  c #D8D3CA",
"W  c #DAD3CA",
"Q  c #DBD3CA",
"!  c #D9D0C8",
"~  c #DCD3C8",
"^  c #D8D2CC",
"/  c #D9D2CC",
"(  c #D8D2CD",
")  c #D9D3CC",
"_  c #DAD3CD",
"`  c #D8D3CE",
"'  c #D9D4CD",
"]  c #DAD4CC",
"[  c #DAD4CD",
"{  c #D9D5CE",
"}  c #DAD5CF",
"|  c #DAD4CE",
" . c #DBD6CF",
".. c #DED7CD",
"X. c #DAD5CC",
"o. c #DED9CD",
"O. c #D7D4D1",
"+. c #D9D4D0",
"@. c #D8D5D1",
"#. c #D9D4D1",
"$. c #DBD5D0",
"%. c #D9D6D0",
"&. c #DBD6D0",
"*. c #D9D5D2",
"=. c #DCD7D0",
"-. c #DCD7D1",
";. c #DCD7D2",
":. c #DDD6D2",
">. c #DAD6D4",
",. c #DAD6D1",
"<. c #DBD8D1",
"1. c #DED8D3",
"2. c #DFDAD2",
"3. c #DCD8D2",
"4. c #DDD9D5",
"5. c #DCD8D4",
"6. c #DDD9D6",
"7. c #DDDAD7",
"8. c #DEDAD6",
"9. c #DDDAD4",
"0. c #DDDAD8",
"q. c #DEDAD8",
"w. c #DEDCD8",
"e. c #DFDDDA",
"r. c #DFDDD9",
"t. c #E1D6C3",
"y. c #E3D9C7",
"u. c #E4DAC4",
"i. c #E8DDC4",
"p. c #E0D7CB",
"a. c #E1D9C8",
"s. c #E1D8CB",
"d. c #E2DBCC",
"f. c #E0DBD1",
"g. c #E1DDD4",
"h. c #E1DEDB",
"j. c #E1DFDB",
"k. c #E0DEDA",
"l. c #E1DFDD",
"z. c #E0DEDD",
"x. c #E1DEDA",
"c. c #E9E0C4",
"v. c #E7E1CD",
"b. c #EAE3CD",
"n. c #E5E0D4",
"m. c #EAE4D4",
"M. c #EDE8D6",
"N. c #E2E0DC",
"B. c #E2E0DF",
"V. c #E3E1DF",
"C. c #E3E2DF",
"Z. c #E4E2DF",
"A. c #E3E1DD",
"S. c #E8E4D8",
"D. c #EAE6DB",
"F. c #EDE9D8",
"G. c #EEEADC",
"H. c #F0EDD7",
"J. c #F2EDDD",
"K. c #F5F0D6",
"L. c #F4F1DF",
"P. c #E3E2E0",
"I. c #E3E2E1",
"U. c #E4E2E1",
"Y. c #E4E3E1",
"T. c #E4E2E0",
"R. c #E6E4E2",
"E. c #E5E4E2",
"W. c #E8E6E4",
"Q. c #E7E8E5",
"!. c #EAE9E5",
"~. c #EBECE9",
"^. c #F1EEE4",
"/. c #F5F2E4",
"(. c #F8F5E5",
"). c #F9F8E6",
"_. c #F5F3EB",
"`. c #FAF7E9",
"'. c #FBF9ED",
"]. c #FDFBF0",
/* pixels */
"i c a = - <   . u &.] r 5 b 5 0 0 u h ! ! b b <.b &.Y.l.w.x.l.q.) h m m b n j h p c c p J m c b h a g g b b i c p u M h a h p 9 ",
"i c h 1 : 4 3 b M ] ] g u b i u 9 u b ! b C v ] b >.R.I.l.w.V.q.] b b M M n y.b b J p b ) M c b g a g g b i 8 b c 0 d a u h c 9 ",
"i p b : * r u b c =.=.M h b i 0 9 g b ) ! =.M J C &.Y.R.V.x.l.9.) b J J b B a.b m J p b ) m c b g g b g h 9 p C p 3 u a u b b 9 ",
"i i a 6 , a 5 b m &.&.! b b i 0 h g h =.] &.) 3.S.] V.Y.V.x.w.9.! M J J ! ~ p.! J 9.b b J M b b h g b j h q ] &.u 2 a g h b p i ",
"h h a e , r n i b =.3.C b M i i h 5 b 9.) ) &.f.F.C Y.I.Y.x.w.] ! M J J ..b ~ ! J 9.b b &.M b b b i h b h c ! 3.b 2 a a b c i i ",
"b p b t : 4 b b b =.=.! ~ ~ i h g h =.9.=.9.&.x.d.J R.R.R.l.x.] ..M J &.~ B ~ C &.>.b b &.b b b h h g j i q ..) b 4 5 5 b b b h ",
"b b h f 1 , g b b ) &.] ! h u g h S =.9.9.w.9.9.W 9.R.R.R.R.V.3.~ b J ] ..B ~ C >.) b b 9.b m C i d g b b i ) ) h u > 5 M b b i ",
"b b b t e 4 b b b ! 3.=.! h i g g C =.x.q.>.9.3.C 9.Y.R.V.Y.w.3.~ b m ) m.B ~ C O.C c b &.b b b h g g h ..M C &.k u 4 g b b b u ",
"M b b a t 6 a b b b ..] ] M u h h b =.x.x.9.w.3.b &.e.Q.V.V.x...! m m ) S.B ~ C &.m c b &.b b b b b a g x.] J L k a w g b b b u ",
"! b b a B f w b b b ~ ! 9.! g h a ~ 9.V.x.x.x.J M x.l.Q.l.V.V.] ! M V ) n.~ d.] &.m p M ] b C M b b 5 b x.9.C ] b u 4 b b M b i ",
"b S b g d.y.5 b h M n W x.o.b h 5 M w.V.V.x.9.] b 9.V.R.V.V.R.] C C C C d.b d.C J m b ] ] b C M ! n a ! 3.g...W b i 5 b b b g u ",
"S S b g d.y.a n h ~ ~ =.3...S h h ] x.V.w.w.3.x.] &.R.Q.I.Z.Y.g.] J J 3.d.b ! m J m C ] ! b b m ! b b ! =.] ..] C p a b b b i u ",
"] S b b m.M.r j h S ....=.3.b b ! ] x.x.x.g.&.S.x.9.R.Y.I.V.Y.x.] ] C f.n.~ ] D C b C W ~ b b b ~ h b ..g.&.9.] ] g a b b b b u ",
"] ] ] n M.!.f a p W ~ ! 9.3.S b b =.x.V.V.x.&.W.W.&.Q.Q.Y.Y.R.x.] C M d.n.S ] J m b !  .W b b C j n ~ 3.x.w.w.] ) i g b S S h u ",
"C ] ! a n._.j a i S ~ ! 9.x.! b b ..V.Z.x.9.3.Z.^.&.R.W.Z.V.Y.x.] M M f.a.b C b m m 3.3.] M M S j ~ ! 3.x.x.x.] M u h b ~ b h i ",
"] 3.b a n._.g.a h b ~ ~ 3.N.! b ~ ..Z.Z.l.9.3.x.S.9.Y.R.Y.V.Y.x...b ) f.~ ~ m v m b o.] ] b m S j Q ..x.x.9.x.3.b a b S ! S h 5 ",
"&.9.h r S.G.g.a u b W a ! x...~ o.3.V.Y.Z.x.9.x.<.w.R.R.V.Y.V.N.3.b &.n.a.b b b b c d.] ] b m S j B ~ 3.N.w.x.9.b h b S W C h 5 ",
"! ~ n 4 g.!.a.a u b ~ r ~ x...b ] x.R.V.Z.x.3.x.&.l.Q.R.V.Y.V.x.f.! ] S.~ b b b m b ~ ! ! M M S j j ..N.Z.x.x.w.b b b b W ! h u ",
"~ n n B G.^.d.a h b ~ r ~ x.3.B ..l.R.Z.Z.3.<.x.&.l.Q.Y.N.R.V.x.f.C C S.d.b b b J J o.b ) C C S ~ W ..Z.Z.x.x.9.J i b ~ ! C b 5 ",
"..h h ~ ^._.g.a b b ~ h ~ 9.o.W ..x.Q.Z.V.3.=.x.L x.W.Y.Z.R.V.x.f.! ] D.f.b b M M M d.C ] b m ! W ~ ..x.S.x.x.w.m p ~ ! S ! h 4 ",
"9.h h d.!._.a.a b ! W a ~ 3...b b Z.R.R.Z.3.&.w.J V.!.!.R.Y.w.x.f.C 9.x.d.b b C m b f.W ) C C ~ ~ n ..N.x.N.x.9.J b j ~ W W b 5 ",
"..j b f.S._.a.d b C W r n 3...h j Z.R.R.N.3.] ] C V.!.W.R.Y.x.x.f.! 9.g.d.! b M M C G...M ! n ~ j h 3.V.V.V.w.w.J b h Q W ! h 0 ",
"] b n g.g._.d.h b ! ~ a ~ f...j ..x.Y.R.x.9.x.&.&.I.!.!.W.W.V.S.f.) w.D.S.S b C M 3.^.o.b n a ) d a w.V.V.N.9.3.V b g ~ ~ ~ h 5 ",
"! j ~ ..p._.a.n b b ..a j f...~ 3.x.R.R.x.3.x.J &.Q.!.!.W.Z.V.D.x.] w.D.G.W M ) M S.'.f.S ] J b e d x.Z.V.x.9...d.b b ~ b b h 0 ",
"B d j ..~ _.~ S b b f.j n ..o.~ 3.x.R.Y.x.w.9.9.&.Q.~.!.W.V.V.S.f.] w.D.S.S M C M 9.'.f.S ] C b a n 9.x.V.x.x.&.S b ..S n ~ g 5 ",
"h d j o.d._.~ ! b b f.s j o.o.~ W g.V.Y.9.9.3.9.>.Q.!.W.R.R.V.S...] w.D.S.S M C C f.'.] C ....j a Q V.V.V.x.V.w.c C o.! ~ ~ 5 > ",
"n j B ..~ _...! C b d.a j ..f.B ~ x.R.R.&.&.3.&.9.R.~.W.R.V.Y.x.~ ] x.^.M.C b J b D._.b ] ] ~ a a ..N.V.N.l.V.x.f.C 3.~ n h 4 2 ",
"a j n f.f._.~ ! b b d.d B ~ o.~ o.3.Q.R.w.&.x.9.V.!.!.W.R.V.R.N.o.3.N.^.S.b b C b x._.~ W ] h r d 9.N.V.x.w.w.S.n.C ] ~ ~ r 4 5 ",
"j h j n.n.^.n W b C d.f B ~ o.o.o.f.R.R.x.&.9.w.V.R.Q.W.Z.Z.Q.S...3.x./.n.b b C b S./...! ! S t a x.V.V.x.x.w.x.o.] ..~ B a 4 a ",
"~ h j f.n.g.h ~ h S o.j B ~ ..o.~ ~ R.W.w.&.9.9.O.Y.!.Q.Z.Z.R.Z.f.3.x.D.M.h b b c n.^.o.b ! S t h x.V.V.x.V.w.n.o.C 3.! j j r u ",
"~ g h j f.~ b b b S ..B B o.W W j ~ Q.W.x.&.N.x.&.!.Q.W.V.V.V.D.S.3.x.!.G.b b M c f.'.o.b S b a h x.V.x.w.V.>.S.o.) o.~ b j w 5 ",
"B h ~ ~ ~ B 3.b b ! W B d o...~ f W Q.R.x.L x.x.9.Q.Q.!.N.V.V.D.n.9.9._.^.b b b c f.`.f.b b b a h x.V.V.x.V.9.S.o.M 3.~ ~ j w > ",
"n j y.~ f.d.W M b ! ~ j d d...n a f.Q.V.9.3.D.3.&.R.Q.!.N.Z.Z.S.3.9.3.G._.~ b b c f.'.G.S N ~ d j x.R.N.x.V.x.Z.~ b 3...B g r - ",
"~ a k S ~ a.~ b b ~ j d n f.W B j N.R.N.3.w.!.D.O.R.Q.Q.x.w.N.w.o.w.w.G._.~ b b b x.'./.f.b W e r x.V.V.N.V.V.Z.~ b 3.W ~ b 5 # ",
"~ r k ~ n j ..! ) 3.~ a 3.x.3.~ j f.W.R.w.x.x.9.w.l.V.R.l.w.x.3.W x.x.S.G.S b b p n.]./.n.b N 6 r Z.I.V.Z.V.V.R.~ b ~ ~ ~ b 5 @ ",
"~ a f B B j r j w.3.o.~ x.x.3.B j x.R.R.w.x.w.x.x.V.Y.Q.V.x.9.f...x.x.S.S.b b m c ..(.G.o.b S j h V.Q.Z.V.Y.Y.N.i ! ~ W W h w > ",
"b d f B j a.a M 9.3.3.x.N.w...j ~ x.R.R.x.x.D.w.w.D.R.Q.V.N.Z.x.C x.w.S.F.b b m c ~ J.J.n.b b j j N.Q.I.Y.Q.W.Z.b ] W W W S w # ",
"n s t v.l B a 3.3.w.x.x.N.3...n ~ x.R.R.S.Z.R.x.w.V.Q.!.V.V.V.x.W x.w.G.J.b b b b ~ J.J.d.b h d B C.R.Y.R.Q.R.R.C ] W ~ W ~ w % ",
"b a f M.t k 7 ..9.x.x.w.N.9...B ~ ~ Y.D.N.W.R.w.>.R.~.R.V.D.V.x.f.3.x.^.J.h b b c N J./.d.b b h j Z.R.R.V.Q.Q.R.c ] W W ~ W 5 @ ",
"b a z b.e j , g g.x.x.o.f.x.3.B ~ ~ R.D.Z.R.Z.3.9.R.~.T.V.N.Z.x.C 9.x.^./.b b b b S J.).v.b S h j V.Y.Y.V.Q.Q.R.i C o.] W W w > ",
"g e x b.r j 7 a <.9.3.W ..x.] B ~ B D.R.D.N.Z.&.] R.~.Q.V.V.W.x.b Z.w.!./.b c b b ~ /.).d.b N d j V.R.V.V.R.R.R.&.! 3.<...] a > ",
"a e u.y.s B , b ] 9.9.] o.x.=.B B j Z.Z.Z.N.W.J &.R.!.!.V.V.V.D.] Z.9.!./.h c b c o./.J.S b b 6 a V.V.V.V.T.T.R.] b 3.o.3. .2 > ",
"a < i.u.a B d h W x.w.x.o.f.3.j B B x.Z.Z.Z.9.V R.Q.Q.R.D.D.Z.x.] S.w.!.J.b b b c o.'.n.h ! d : d Z.Z.V.V.R.Y.V.] C 3.] 3. .4 2 ",
"a < i.u.r d.a h ] w.x.N.~ f.9.a a B x.Z.D.R.J O.Q.Q.R.V.R.V.Z.9.C C.x.G.F.h b b b b /.d.b ! a : j V.Z.D.R.Y.R.w.c b w.] f. .u 5 ",
"a 6 u.b.r a.r j 3.9.x.Z.~ 3.9.j a ~ x.D.V.Z.3.L Q.Q.R.Z.D.Z.w.9.b N.x.F.M.b b b b W /.m.b ~ h 6 n Z.V.Z.V.V.R.w.c c x.3.w.] b u ",
"a 4 t./.j t.4 a 3.3.Z.S.~ o.f.B j ~ o.N.x.x.3.J !.!.V.Z.R.Z.x.N.~ x.w.G.L.j b b b ~ `.n.~ W j a W V.V.Z.I.R.R.&.c C 9.<.9.] C u ",
"5 < t./.y.B 5 j 3.x.Z.f.~ ~ 3.W 7 B d.x.x.x.] ) ~.W.Z.R.R.V.D.W.W w.3.G.`...p b b p n.M.d.B a a ~ Z.V.V.V.I.V.&.c c w.&.w.] b g ",
"4 ; k b.f a h x.] 9.N.3.~ ~ ] o.r B o.9.x.x.Z.<.x.!.!.C.!.R.V.R.! w.3.G./.~ b v b p ..F.~ h d 4 h Y.V.V.V.I.V.>.C b x.] 9.] S h ",
", * k u.t 4 h Y.3.&.9.o.~ ..! &.h j o.3.x.w._.9.V.!.Q.R.R.R.w.D.~ w.9.n.(.~ h c b i a.L.a.j h 4 h V.x.Z.Y.Y.l.<.b <.N.] <.&.! u ",
", & k M.k h 4 x.N. .9.W ~ o.S ] W ..~ W w.w.!.&.V.!.!.Q.Z.V.w.Z.~ 3.N.f.L.~ p b b p y.L.g.N a 6 a V.V.V.Y.V.V.L v >.w.C 3.9.C b ",
"4 % t J.B h a Z.x.] 3.W W o.C C ] ~ ~ 3.x.x.w.<.V.R.R.V.R.Z.N.V.f.9.Z.o.J.~ b b c i a.J.a.b h r j N.V.V.I.V.V.] c >.x.L 3.9.C b ",
"5 * 4 M.j 5 n Y.<.] 3.W W o.W C ] B B x.x.9.3.<.R.Q.R.V.C.R.V.N.G.3.Z.9.J.a.b c p p L.J.B b a 6 r N.V.V.V.V.l.<.c &.Z.3.C 3.W h ",
"5 & 6 m.t.a R.V.L <.9.] ~ W W C ] B B f.o.x.<.&.R.R.R.Z.Z.R.I.x.D.o.V.3.M.~ h c p b (.H.~ b r : d x.V.V.V.w.w.<.p ] x.w.] ] ] b ",
"5 % 4 u.t g W.<.L 3.9.] N ~ ] b S B j ~ x.9.] &.R.R.Y.D.R.Y.V.w.S.o.x.3.M.M.b p p h J.H.b b h , a x.V.V.x.w.V.<.v ] w.x.R C &.b ",
"u % ; j f 5 x.<.J ] 3.] b W ] b b B j ~ 3.9.C J Q.R.W.R.Y.I.V.w.d.o.9.3.M.m.N p p i F.v.h b h r a x.V.V.V.x.x.<.C m w.9.] S L C ",
"5 % * t t 4 ~ x.C L 3.W S W W b b ~ ~ ..] ] b b R.Q.W.Z.R.Y.I.3.~ d.9.3.v.B b p p y S.b.p b h 7 d x.V.N.x.x.w.3.C V x.<.<.J &.C ",
"u $ $ e 6 5 n <.V W o.! j j ] b p S ....~ ] C J R.Q.W.Q.Q.Y.V.w.o.d.3.3.~ ~ b p p i m.b.h b h r a 3.x.x.V.V.9. .c b w.w.w.>.L C ",
"a % $ e 4 g ! b C W o.~ ~ j W C p b ~ j B 3.b <.Q.Q.!.R.R.I.I.V.o.B ] 3.n.y.h p p p M.d.b b b r 5 ] N.x.V.V.x.C p b 3.&.9.>.J J ",
"g & $ 1 2 b C b L ]  .~ b j ] C p b ~ d j w.m >.R.Q.!.R.R.I.V.V.] B ] 3.M.d.h p c i M.b.b b b a 4 b w.V.V.l.w.J c m ] ! ] 9.L V ",
"i & $ 1 4 9.&.b ] W ..W N ~ ! S p p ~ a j x.S >.R.R.R.V.V.I.l.w.! B C 9.M.b.g c c h H.d.p S b u 4 h 3.x.V.V.x.] b b b S C <.J m ",
"i + X * 4 x.V.&.] ~ ~ C S B C b i p n a W ] C &.V.Q.Q.V.x.V.l.w.! N S 3.d.d.h p c h M.m.p c b b 7 e W V.V.w.l.C b u b b C &.m m ",
"h + o $ u ] R.] R S ~ S b h b b i p ~ d B &.J 9.I.R.Z.V.V.V.l.<.b b S 9...k i p c i v.K.h p b b g e ! w.w.w.w.] b i b b ] &.v c ",
"b & O * u ~ R J ] ~ W B w j b b i i j d j <.L w.V.e.Y.V.V.V.w.<.b b b 3.~ k i i i p b.b.j i b b h 5 h 9.x.w.9.J S u p h S ) V b ",
"h - O * 5 W J J ] S N a r a h p i i j d j ] J v >.V.Y.N.V.V.x.w.&.b h 9.B j i i i i k c.h p h a h 4 a 9.x.x.9.L N w u i h C J v "
};
