/* XPM */
static char *imag2_64[] = {
/* columns rows colors chars-per-pixel */
"64 64 147 2 ",
"   c #947E6D",
".  c #967F70",
"X  c #96806F",
"o  c #98826F",
"O  c #978171",
"+  c #9A8473",
"@  c #9D8977",
"#  c #9E8778",
"$  c #9F8A79",
"%  c #A28D7C",
"&  c #A4917E",
"*  c #A8937F",
"=  c #A58F81",
"-  c #A88F84",
";  c #A69282",
":  c #AA9485",
">  c #AC9887",
",  c #AC9689",
"<  c #AF9C89",
"1  c #AD9C88",
"2  c #AD998C",
"3  c #AF988C",
"4  c #AE998C",
"5  c #AF998C",
"6  c #AD9A8C",
"7  c #AD9B8C",
"8  c #AE9A8C",
"9  c #AF9A8D",
"0  c #AE9B8D",
"q  c #AF9B8D",
"w  c #AE9C8D",
"e  c #AF9D8F",
"r  c #AD998B",
"t  c #B0998B",
"y  c #B09C8B",
"u  c #B0998C",
"i  c #B09A8C",
"p  c #B09A8D",
"a  c #B19A8D",
"s  c #B09B8D",
"d  c #B19B8D",
"f  c #B19A8E",
"g  c #B09B8E",
"h  c #B29B8E",
"j  c #B09C8C",
"k  c #B09C8E",
"l  c #B09D8F",
"z  c #B09E8F",
"x  c #B09C8E",
"c  c #B29D90",
"v  c #B49D91",
"b  c #B29E90",
"n  c #B5A18F",
"m  c #B3A192",
"M  c #B3A193",
"N  c #B4A293",
"B  c #B4A294",
"V  c #B5A294",
"C  c #B5A394",
"Z  c #B5A395",
"A  c #B6A395",
"S  c #B4A495",
"D  c #B7A594",
"F  c #B6A495",
"G  c #B7A495",
"H  c #B6A496",
"J  c #B7A496",
"K  c #B7A596",
"L  c #B7A597",
"P  c #B5A293",
"I  c #B8A494",
"U  c #B8A496",
"Y  c #B8A597",
"T  c #B9A597",
"R  c #B8A697",
"E  c #B9A697",
"W  c #BAA696",
"Q  c #B8A596",
"!  c #BAA897",
"~  c #B8A698",
"^  c #B9A798",
"/  c #B9A799",
"(  c #BAA799",
")  c #BBA799",
"_  c #BCA79A",
"`  c #B9A798",
"'  c #BAA899",
"]  c #BAA89A",
"[  c #BBA89A",
"{  c #BBA99A",
"}  c #BBA89B",
"|  c #BBA99B",
" . c #BBAA9B",
".. c #BCA899",
"X. c #BCA99B",
"o. c #BDA99B",
"O. c #BCAA9A",
"+. c #BDAB9A",
"@. c #BCAA9B",
"#. c #BDAB9B",
"$. c #BCAA9C",
"%. c #BDAA9C",
"&. c #BDAB9C",
"*. c #BDAB9D",
"=. c #BCAB9E",
"-. c #BEAD9C",
";. c #BEAC9D",
":. c #BEAC9E",
">. c #BDAA9C",
",. c #BFAEA1",
"<. c #BFB0A2",
"1. c #C0AE9F",
"2. c #C0AE9F",
"3. c #C1AFA0",
"4. c #C7B4A5",
"5. c #C7B5A5",
"6. c #C7B5A7",
"7. c #C7B6A7",
"8. c #C4B2A4",
"9. c #C8B5A6",
"0. c #C8B4A7",
"q. c #C9B7A7",
"w. c #C8B5A7",
"e. c #C6B6A9",
"r. c #C9B5A8",
"t. c #C8B6A8",
"y. c #C8B7A9",
"u. c #C9B7A9",
"i. c #CAB7A8",
"p. c #C9B7A9",
"a. c #C6B8A9",
"s. c #C8B8A9",
"d. c #CAB8AA",
"f. c #CBB9AB",
"g. c #CDBAAC",
"h. c #CCBBAC",
"j. c #CFBCAE",
"k. c #CBBAAC",
"l. c #D0BDAF",
"z. c #D0BDAE",
"x. c #CEBEB1",
"c. c #D0BEB0",
"v. c #D0BFB0",
"b. c #D1BFB0",
"n. c #CFC0AF",
"m. c #D0C0B1",
"M. c #D1C0B2",
/* pixels */
"+ # + + + + + # # # + # + #.j.l , u u u r r , , > , u , , 7 l g.;.@ % # $ % % % # $ & % % % : % > q.#.K K Z K K } M K #.) ) } } ",
"+ O + + O + # # # # # % O } m.r , t u r > > > , r r u r , r l u.} @ @ # @ $ % % % % & # % % & % > u.o.K Z ) K } W M K } } K ) o.",
"+ O . + + # + + # # # # . o.c.r 7 u > > r , : c u 7 r 7 r , w g.o.+ % % @ % & % % & & % & & & % > 7.) K K ) K K K ) K ) } K } } ",
"# + + + + + + + # + + # O } c.7 r , > 1 > > u v u r u 7 r > > u.#.@ # @ @ % & # & % & % & % % $ > 7.) K ) K Z K ) ) ) o.) ;.) } ",
"+ # # + O + # + + # + + O o.c.r > r r > , r t , , r r 7 , , > u.#.@ + + % % & & ; $ & & & % & # r q.o.K } K W K ) W ) } } } W } ",
"+ + + # O + + + # + + # O _ l.> ; y > y r , : t 7 7 > 7 r > r d.K + @ @ & & % % & # & & % % $ # r q.} W ) K K M K } K ) o.) } } ",
"+ + + O + + + + + + + # . ) g.7 , r r r r : : r , r , r u 7 , y.K O % & % % & % % % & % % % @ % r 7.o.W Z Z K K Z o.} ;.o.} } ;.",
"+ O + . + + + # + # # #   W g.w , , 7 > r > t > , , , r , , > d.W + & $ % % & $ # % $ # # @ % % > 7.} Z Z K W K ) #.) } } } ;.;.",
"+ O + + + + + + O # + +   ) j.l , , > : , , u 7 , r , , , > > 7.W # ; @ % $ $ % @ % % % % % & % r u.} Z ) W Z } W K ) K } 2.o.) ",
"# O + . . + . + + + + O   W j.r > > ; > , : , , , r r , > , > 7.} @ % % % # @ # # % % % & % & % > u.} P P ) } o.K K ) } ;.;.} ) ",
"+ + . . . + . + # + + +   I j.> : : > , : , r : , r 7 r , , 7 u.#.+ % @ % % # % % & % $ & % ; % > 7.#.M K } K } K ) } ) } ;.} } ",
"O . + O   + + + + + + #   W j.r & > > , : , u , r , r 7 7 , > y.o.+ # # # % $ % $ % $ $ % & ; % r q.} P K K ) K W W } ) o.} o.) ",
"+ + + . . + . + # # + +   I l.r ; > > > : u , > , , , , , , : y.#.+ # % # $ @ % @ % $ % & % & % r q.} Z ) } K K K ) ) ;.o.o.} o.",
"+ + .   . O   + # # + #   P g.> : : ; > : , > ; r 7 , , 7 , , u.} + % @ @ @ % % $ $ % % & & & & y q.) P #.K W } } } #.o.#.} } o.",
".     . . .   O # # + + X I g.r ; : , : : : : : , > , , , , 7 7.W @ @ # + # % # % % % & & & % & r 7.} W ) Z ) K o.} } ) W o.o.o.",
"    . +     + + . + O +   Z g.r = > : , : , , , , > , > ; r > 7.! # # @ $ % % % % % & & & % % & r d.8.W W K } Z } ) } o.K 8.o.} ",
"      O   .   + . + + +   Z g.r ; , > : : : > , : , : > ; , , 4.) @ # # % % % % & % % & % & & % y g.;.M K ) } K W #.o.o.K 2.;.} ",
"            . O + o X +   Z d.r ; : : = , ; : ; > , : , ; , , 4.#.+ + # % % # % % % & & & & = % r d.o.Z K K } ) ) o.#.} ) } o.} ",
"O     +     O O X X X +   P d.> = : > ; : : ; > , : : , , , > 7.W + # # % % % % % & % ; % ; ; % r d.;.M K } } } } } } o.;.o.} o.",
".     O O     . X + X X   M q., ; : : : 7 ; ; , , : : , , ; : 7.W @ @ # % % # # & & # & % ; ; % 7 d.;.M W } ) } ) o.} } ;.;.;.o.",
"O O       X + X + +   +   P d.7 : ; : , , ; ; , : , , , , : > 4.#.% @ # @ % % # % & % & & % ; ; r g.;.M W K ) ) #.} ;.o.) } ;.o.",
"O . .   O + + X + O   O   P d.r , : , : : ; > 7 ; , , , > , , 0.#.@ @ # $ % % # % % % : & & & % > d.3.K K Z W o.} } ;.o.K o.2.#.",
"    .   O X + O +   X +   M g., : : , = ; ; , , : , , , , , > 4.W + # % % # @ # % % & & & & & % l g.3.Z ) ) } o.o.o.o.;.o.;.;.o.",
"O         X   O O     +   Z d.7 ; : , ; ; > > , , , , , , , ; 4.W @ % % % # % $ & % & & & & & ; r d.o.Z } } #.W ;.o.;.8.;.#.;.8.",
"    +   X + X X       @ O M 7.> : : , = ; , , : , , , r > : : 4.W + @ % $ % % % % & % & = % % ; l u.;.W } } ;.} ;.;.;.3.o.;.2.8.",
"  + +     X X       + +   Z u., = = : ; ; : : : , , , , , : ; 7.W @ % # $ $ % # % % & % ; % ; ; l u.;.W } } } ;.o.;.2.;.o.3.2.2.",
"  O       X O X     + +   P d., : = : ; : , : , 7 : > > , , : u.} @ % % % % % # & : & ; ; % : ; 7 d.o.K } } ) ;.o.;.;.#.;.3.3.2.",
"  X       + X X O + + +   P g., : = : : , : : , , > , : r , , 0.#.# % % % % % % & % # % ; : : : > g.o.) ) #.) #.o.o.;.;.o.8.8.3.",
"      X X X     + O X +   P g.> ; : , , , ; > : , , ; , 7 r , 4.} # & # # % % % % # & ; ; ; ; ; l j.;.} ) ) } ;.} ;.3.;.;.7.4.;.",
"    + X X   X X + X X +   K d.> ; : : , : , : : , , , 7 7 , , 4.#.+ % % % % % % & & ; ; & % : ; w d.3.W } ) ;.o.} ;.;.;.8.3.3.3.",
"      X X X + +     + +   M g.r ; : , , > , : , r 7 7 , , , , 7.2.+ @ & & % & % ; ; ; ; ; > > ; r d.o.} } } ;.;.} 3.3.3.3.3.4.8.",
"+   X   X + + + X O + +   P g.7 ; = , , : , > , , r 7 , , , , 7.#.@ # & % % % & ; : = > : , ; ; 1 g.;.) } o.} ;.3.;.8.3.8.8.4.8.",
"          X O X X O + + X n g.w : : : : : : , , , , , r 7 , , 7.} + % % & % % & ; : - : : : : ; 1 d.8.} } o.;.;.4.8.2.3.2.8.8.8.",
"    X X   X + +   X + +   n g.7 ; , ; > > , : , u 7 7 , , , , u.! @ % % % % = ; ; : : : : : : ; l d.;.} #.o.o.;.4.3.;.3.;.8.4.3.",
"    +     X X O X X + +   P g.u : : : > : , ; 7 7 , r , > , , d.} @ % # % % ; ; ; > > : : , , : c g.;.} o.;.o.;.8.;.8.8.2.8.7.8.",
"  + +     X O + X   + +   n g., ; : = ; : , : , r , 7 > r 7 , q.} # % % % ; ; % ; > , > > > > : u g.;.} o.3.;.3.3.3.8.3.3.3.8.8.",
"+ X O X + + X @ +   + +   P g.> , : = : , : > , 7 l 7 , 7 r w 7.#.# % = % % & & & ; , > r > ; > 7 g.3.} #.#.;.3.8.,.3.4.8.8.8.8.",
"X X +   + + X + X X + +   P g.r : : : : : : r , r 7 u 7 , 7 w u.o.# % ; % % % ; : ; ; ; > > , u w g.3.} ;.o.#.3.4.3.3.8.3.4.7.4.",
"  +   X   X + + + X + #   n g.r : , : : r , , , , r r u 7 l > u.;.+ ; % * % ; : t ; % r > > , , M g.8.o.o.o.) 3.4.4.8.8.u.7.7.7.",
"+ X +     + + + +   + +   n g.7 : ; : > , , : , 7 7 7 7 u 7 , u.#.# % ; & & : : ; = ; t , , t : c g.8.) o.o.} ;.8.7.4.7.y.y.y.k.",
"+   # X + + O O + O O +   n g.7 : > , : , , , , , r 7 , 7 r 7 q.#.# & & & & ; , ; ; : , , 3 l , l l.3.} o.2.;.2.3.y.8.8.8.y.y.y.",
"X   + X X X + + + X X +   n h., : : , , , 7 r , , u l 7 l 7 u u.;.$ % % & ; ; : ; : > > t r l > l g.2.} #.3.;.2.8.7.8.y.8.y.y.y.",
"X   X   O X @ O X + X +   I d.r : , : r , , , , 7 u u c u > w y.;.% & & & & ; ; > ; ; , , r u , M j.3.#.2.3.2.3.8.8.e.y.y.y.k.y.",
"+ X   X + + + + X + + #   P d.7 , , > > , r , , 7 7 l r , 7 7 u.2.% & % & & & ; : : : , > , l , M c.3.;.3.8.8.8.3.8.d.y.y.s.k.s.",
"+ X X X + + X # + + + +   n l.c : , , ; , , , , 7 l 7 , r l r 7.2.; ; % ; & : , ; : > > l 7 u , M j.8.} ,.8.8.8.8.y.y.y.y.k.k.y.",
"  X + + X + X # + X + +   n j.l , , , : 7 , , , c l l r l 7 r q.2.% > ; ; % : , ; , , > r 7 u > l j.8.) o.8.8.8.8.8.y.k.y.k.k.y.",
"X + o + + + + + + + + +   l g.c r > : , , r r 7 u l 7 l c 7 w u.8.# ; : % % ; ; ; , > l > 7 7 , v j.4.} ;.3.4.8.e.8.d.k.y.k.k.k.",
"# X   + @ + X + + + + # O P g.c , , r , , r 7 c r 7 u 7 7 7 c d.2.% ; , % ; > ; , , : 7 , u r r c c.8.o.;.8.4.8.y.y.k.y.y.y.y.y.",
"# +   + + + + @ X + + # X P l.c > > 7 : , , 7 c , u 7 7 r l w d.8.# ; ; ; % = ; > , , l , 7 u r c l.8.o.3.4.8.7.y.y.y.y.y.y.e.8.",
"# +   + + + + + + + + + X n l.7 > , 7 , , r r 7 , l , c 7 c 7 u.3.# & % ; = ; , > : , u u 7 l r c l.7.;.3.,.3.7.y.e.y.y.y.y.y.y.",
"+ X X # + + X X # @ X + X P l.r > , 7 , , , , u 7 l r M w c u q.2.% ; % ; ; , > , : r r r 7 c , w m.7.o.8.,.8.8.y.8.k.k.s.k.k.x.",
"+ + + X + X + + + + + + + W l.7 ; , l r r 7 , 7 u l l c c l r 7.#.% ; ; ; = : , , > : l u 7 u , c j.u.2.3.8.8.4.y.y.k.k.k.k.k.k.",
"+ + X X X + + + X + + @ X P j.r : , 7 , , r r u l 7 c l l c 7 d.;.; ; : , = ; r , , , , 7 7 7 r c c.7.o.3.4.4.8.y.y.y.k.k.k.k.x.",
"+ +   X + + + + + # O # o n l.7 , , 7 , , , r l c c c l u l r d.3.= ; ; : : = > , , , r r 7 r 7 c c.7.,.3.3.8.8.y.y.y.y.k.y.x.x.",
"+ #   + + + + + + # + # X P g.l r r 7 r , , 7 l l l c 7 l c r d.;.% : % : , : = , r : r l r c u M j.u.8.3.3.4.y.y.y.y.k.k.x.x.x.",
"+ + + + # + + + + + + # O P g.l r 7 , r r r 7 7 c r c c 7 c 7 q.2.= > % : , , > : u r 7 7 , 7 l Z m.u.3.;.3.7.8.8.y.y.k.y.x.x.k.",
"+ + # X + + + @ + + + # O P z.c , , 7 , r , l u u u u c 7 l c d.2.% ; % : , , , : , , 7 r , 7 l M m.7.8.8.8.7.7.4.y.d.k.k.x.x.x.",
"+ + +   + @ # # # # + #   n l.l , r 7 r 7 7 7 7 7 l 7 c u c 7 q.2.= ; : : > , : , , , , u , c 7 Z l.q.4.3.8.4.4.7.y.y.k.k.k.x.x.",
"+ + + X + + + + @ # + @ X n l.7 , 7 7 , 7 c r 7 7 c c l l P 7 u.8.% ; , ; : : , , , , u 7 , c r W c.u.8.8.3.3.8.8.u.k.k.j.k.k.x.",
"+ + X + # + + + + + + # + I j.7 > r 7 , l l , l c l l P l Z w u.8.$ = : : = : , , , , u 7 w 7 r W j.7.3.7.8.8.4.y.y.x.k.k.k.k.x.",
"X + X + # X + + + + + # + P l.7 r r r 7 , r , c l 7 l P u l r u.8.= > , : = , , u t r r l , 7 w Z c.7.8.4.4.8.4.y.e.k.k.k.x.x.x.",
"X X + + O O + + # @ + @ X P z.7 , r r 7 , 7 7 P u r c Z c c 7 u.8.= > , > > r , , , r u u r c 7 P c.q.4.8.4.8.7.e.y.y.k.k.s.k.M.",
"+ X X @ + + # + # + # @ + n g.c , 7 c 7 r u 7 c 7 r l 7 c M 7 d.4.; : , ; , , : , , 7 v u 7 v , P M.7.;.8.8.8.8.y.y.k.k.k.y.x.M.",
"+ + X + # + @ # @ + % @ + P g.l , , l 7 7 u 7 7 c u l r l Z M u.3.; > , : , > , , r r 7 7 7 l r W m.7.,.4.3.8.y.y.y.k.k.y.k.M.x."
};
